<?xml version="1.0" encoding="utf-8"?>
<!-- Generator: Adobe Illustrator 24.1.3, SVG Export Plug-In . SVG Version: 6.00 Build 0)  -->
<svg version="1.1" id="Layer_1" xmlns="http://www.w3.org/2000/svg" xmlns:xlink="http://www.w3.org/1999/xlink" x="0px" y="0px"
	 viewBox="0 0 256 256" style="enable-background:new 0 0 256 256;" xml:space="preserve">
<style type="text/css">
	.st0{fill:#FFFFFF;}
</style>
<g>
	<path class="st0" d="M136.61,110.12c9.05-5.06,89.54-51.21,94.75-54.28s5.52-3.83-1.69-6.75c-7.21-2.91-90.79-37.5-95.39-39.49
		s-7.83-2.13-12.13-0.45c-4.29,1.69-85.36,35.64-94.41,39.48c-9.05,3.83-8.74,3.83,0,8.89s76.66,44.62,88.16,51.21
		C127.41,115.34,136.61,110.12,136.61,110.12z"/>
	<path class="st0" d="M129.76,129.85c-0.11,10.36-0.13,103.15-0.06,109.2s0.58,6.69,6.69,1.89s77.7-60.09,81.72-63.09
		s5.75-5.73,6.42-10.3c0.67-4.56,11.55-91.78,12.73-101.53s1.02-9.49-7.71-4.42c-8.74,5.06-76.84,44.3-88.28,50.99
		C129.81,119.28,129.76,129.85,129.76,129.85z"/>
	<path class="st0" d="M125.77,129.85c0.11,10.36,0.13,103.15,0.06,109.2s-0.58,6.69-6.69,1.89s-77.7-60.09-81.72-63.09
		s-5.75-5.73-6.42-10.3c-0.67-4.56-11.55-91.78-12.73-101.53s-1.02-9.49,7.71-4.42c8.74,5.06,76.84,44.3,88.28,50.99
		C125.71,119.28,125.77,129.85,125.77,129.85z"/>
</g>
</svg>
