<?xml version="1.0" encoding="utf-8"?>
<!-- Generator: Adobe Illustrator 24.1.3, SVG Export Plug-In . SVG Version: 6.00 Build 0)  -->
<svg version="1.1" id="Layer_1" xmlns="http://www.w3.org/2000/svg" xmlns:xlink="http://www.w3.org/1999/xlink" x="0px" y="0px"
	 viewBox="0 0 512 512" style="enable-background:new 0 0 512 512;" xml:space="preserve">
<style type="text/css">
	.st0{fill:#3779ED;}
	.st1{fill:#189C0E;}
	.st2{fill:#E0201B;}
	.st3{fill:#2F2FCC;}
</style>
<g>
	
		<image style="overflow:visible;opacity:0.75;" width="342" height="340" xlink:href="C12C3FC3.png"  transform="matrix(1 0 0 1 92 93)">
	</image>
	<g>
		<path class="st2" d="M397.5,101.3c-1.5,0.4-4.3,1.1-7,2c-92.3,29.6-184.6,59.2-276.9,88.6c-6.5,2.1-12.2,4.8-12.7,12.3
			c-0.5,7.9,4.8,11.5,11.5,14.4c38.9,16.8,77.6,34.1,116.6,50.7c7,3,10.9,7.2,13.9,14.1c16.8,38.8,34.1,77.3,51,116
			c2.7,6.3,5.6,11.7,13.4,11.2c7.6-0.5,10.4-5.8,12.5-12.4c17.7-55,35.6-110,53.4-164.9c12.3-38.1,24.7-76.1,36.9-114.2
			C413.5,108.9,408.5,101.2,397.5,101.3z M239.7,247.1c-30.6-13.4-61.5-26.3-94.1-40.2c70.3-22.8,138.9-45,208-67.4
			c-0.2,3.7-2.7,4.8-4.4,6.5c-33,32.9-66.1,65.7-99,98.7C246.9,247.9,244.6,249.2,239.7,247.1z M305.6,366.1
			c-14.1-32.3-27.4-62.8-40.8-93.2c-1.4-3.3-1.6-5.1,1.4-8.1C300.6,231,334.7,197,368.9,163c1.1-1.1,2.3-2,5.3-4.6
			C351,228.5,328.6,296.5,305.6,366.1z"/>
	</g>
</g>
</svg>
