<?xml version="1.0" encoding="utf-8"?>
<!-- Generator: Adobe Illustrator 24.1.3, SVG Export Plug-In . SVG Version: 6.00 Build 0)  -->
<svg version="1.1" id="Layer_1" xmlns="http://www.w3.org/2000/svg" xmlns:xlink="http://www.w3.org/1999/xlink" x="0px" y="0px"
	 viewBox="0 0 512 512" style="enable-background:new 0 0 512 512;" xml:space="preserve">
<style type="text/css">
	.st0{fill:#3779ED;}
	.st1{fill:#189C0E;}
	.st2{fill:#E0201B;}
	.st3{fill:#2F2FCC;}
</style>
<g>
	
		<image style="overflow:visible;opacity:0.75;" width="340" height="340" xlink:href="D3F187B.png"  transform="matrix(1 0 0 1 93 93)">
	</image>
	<g>
		<path class="st3" d="M410.8,162.6c0-5.3-0.5-10.5-1.8-15.6c-6.7-26.9-30.2-45.6-58-45.7c-31.5-0.2-63.1,0-94.6,0c0,0,0,0,0,0
			c-31.4,0-62.8-0.1-94.3,0c-34.5,0.1-60.8,26.4-60.9,60.9c-0.1,62.6,0,125.2,0,187.8c0,3.9,0.3,7.7,1.1,11.5
			c5.9,29.5,29.8,49.2,60,49.3c62.5,0.1,124.9,0,187.4,0c3.7,0,7.5-0.2,11.2-0.9c29.8-5.6,49.9-29.8,49.9-60.2
			C410.8,287.3,410.8,224.9,410.8,162.6z M398.8,349.3c0,28.6-20.9,49.5-49.7,49.5c-62.1,0-124.2,0-186.3,0
			c-28.7,0-49.6-20.9-49.7-49.5c0-62.5,0-124.9,0-187.4c0-23.5,15.3-42.6,38.1-47.6c3.8-0.8,7.6-1.1,11.5-1.1c31,0,62.1,0,93.1,0
			c31.4,0,62.8-0.1,94.3,0c23.5,0.1,42.5,15.5,47.5,38.3c0.8,3.7,1.1,7.4,1.1,11.1C398.8,224.9,398.8,287.1,398.8,349.3z
			 M363.6,291.6c-0.7-13.2-5.1-25.3-13.7-35.7c-16.5-19.9-54.9-23.7-75.3-0.6c0.2-3.7,0.1-6.6,0.6-9.4c0.5-3-0.6-3.5-3.3-3.5
			c-12.6,0.1-25.2,0-37.8,0.1c-2.7,0-6.3-1.2-7.9,0.6c-1.3,1.4-0.2,4.9-0.2,7.5c0,41.5,0,83-0.2,124.5c0,2.9,0.7,3.7,3.7,3.7
			c14-0.2,27.9-0.2,41.9,0c3.1,0,3.9-0.8,3.9-3.9c-0.1-23.1-0.1-46.1-0.1-69.2c0-2.7,0-5.5,0.3-8.2c0.9-9.5,9.3-17.3,19-17.9
			c10.6-0.6,17,4.4,19.2,15.2c0.4,1.8,0.7,3.7,0.8,5.5c0.8,17.2,0.2,34.4,0.4,51.6c0.1,8,0.1,16,0,23.9c0,1.9,0.2,2.9,2.6,2.9
			c14.8-0.1,29.7-0.1,44.5,0c1.8,0,2.3-0.7,2.3-2.4C363.9,348.2,365,319.9,363.6,291.6z M354.6,373c-10.1-0.2-20.2-0.2-30.3,0
			c-2.8,0-3.6-0.6-3.6-3.5c0.1-20.2,0.1-40.4,0.1-60.6c0-6.2-0.4-12.4-2.3-18.5c-6.6-20.6-29.2-19.8-39.4-10.6
			c-6.2,5.6-9.9,12.4-9.8,21c0,22.7-0.1,45.4,0.1,68.1c0,3.3-0.7,4.2-4.1,4.1c-10-0.2-20-0.2-29.9,0c-2.9,0.1-3.5-0.8-3.5-3.6
			c0.1-19.7,0.1-39.4,0.1-59.1c0,0,0.1,0,0.1,0c0-19.5,0.1-38.9-0.1-58.4c0-2.9,0.7-3.5,3.5-3.5c10.1,0.2,20.2,0.2,30.3,0
			c2.7,0,3.4,0.8,3.1,3.4c-0.4,4.6-0.6,9.2-0.8,13.8c-0.1,1.2-0.1,2.6,1.5,2.3c1.7-0.3,3.8,1.9,4.9-0.8c5-11.4,14-17.9,25.8-20.6
			c8.7-2,17.6-1.7,26.2,0.9c17.3,5.2,26,17.8,29.8,34.6c1.6,7.1,1.9,14.3,1.9,21.6c0.1,21.8,0,43.6,0.1,65.5
			C358.3,372,357.7,373,354.6,373z M207.9,245.8c0-2.6-0.6-3.4-3.3-3.3c-14.2,0.1-28.4,0.1-42.6,0c-2.8,0-3.5,0.6-3.5,3.5
			c0.1,21.4,0.1,42.9,0.1,64.3c0,21.7,0,43.4-0.1,65.1c0,2.7,0.6,3.6,3.5,3.6c14.2-0.2,28.4-0.1,42.6,0c2.6,0,3.4-0.7,3.4-3.3
			C207.8,332.4,207.8,289.1,207.9,245.8z M197.8,373c-10-0.2-19.9-0.2-29.9,0c-2.5,0-3.4-0.5-3.4-3.2c0.1-39.4,0.1-78.8,0-118.2
			c0-2.5,0.8-3.1,3.2-3c10.3,0.1,20.7,0.1,31,0c2.7,0,3.3,0.9,3.3,3.4c-0.1,19.6-0.1,39.1-0.1,58.7c0,19.4-0.1,38.9,0.1,58.3
			C202,372.4,200.9,373,197.8,373z M183.4,179.7c-1,0-2-0.1-3,0c-14.8,1-26.3,14.1-24.5,27.9c1.6,12,9.7,20.3,22,22.6
			c11.8,2.2,24-3.2,29.5-13.1C217.1,199.9,204.1,179.7,183.4,179.7z M204.5,207c-0.5,9.8-7.8,16.7-18.5,17.6c-1,0.1-2,0-3,0
			c-14.9,0.1-23.7-10.5-20.6-24.6c1.4-6.2,5.2-10.4,11.1-12.7c4.8-1.9,9.7-2.2,14.7-1.3C199.2,187.9,205.1,195.6,204.5,207z"/>
	</g>
</g>
</svg>
