<?xml version="1.0" encoding="utf-8"?>
<!-- Generator: Adobe Illustrator 24.1.3, SVG Export Plug-In . SVG Version: 6.00 Build 0)  -->
<svg version="1.1" id="Layer_1" xmlns="http://www.w3.org/2000/svg" xmlns:xlink="http://www.w3.org/1999/xlink" x="0px" y="0px"
	 viewBox="0 0 512 512" style="enable-background:new 0 0 512 512;" xml:space="preserve">
<style type="text/css">
	.st0{fill:#3779ED;}
	.st1{fill:#189C0E;}
	.st2{fill:#E0201B;}
	.st3{fill:#2F2FCC;}
</style>
<g>
	
		<image style="overflow:visible;opacity:0.75;" width="424" height="428" xlink:href="96C17390.png"  transform="matrix(1 0 0 1 51 49)">
	</image>
	<g>
		<path class="st0" d="M452.3,229c-0.5-2.4-0.3-4.9-0.5-7.4c-2-19.1-7.2-37.3-15.4-54.7c-7.4-15.8-17-30.3-28.7-43.4
			c-9.5-10.6-19.9-20.2-31.5-28.6c-14.3-10.3-29.6-18.5-46-24.7c-22.1-8.3-44.8-13.1-68.5-13.1c-0.8,0-1.6,0-2.3,0
			c-2.9,0-5.7,0-8.6,0c-13.3-0.1-26.3,1.5-39.3,4.3c-15,3.3-29.5,8.1-43.4,14.7c-14,6.6-27.2,14.7-39.3,24.4
			c-10,7.9-19.2,16.7-27.4,26.5c-10.6,12.8-19.6,26.6-26.4,41.8c-9.6,21.4-15.2,43.6-15.2,67.2c-0.1,2.8,0.3,5.6-0.2,8.4
			c0,0.5,0,0.9,0,1.4c0.3,0.3,0.2,0.7,0.2,1.1c0.1,6.4,0.5,12.7,1.4,19c2.7,18.5,8.5,36,16.8,52.6c4,7.8,8.5,15.4,13.6,22.5
			c8.1,11.3,17.1,21.7,27.5,30.9c2.7,2.4,5.6,4.5,7.9,7.2c0.5,1,0.3,2.1,0.3,3.2c0,20.5,0,41,0,61.5c0,2.9,0,5.8,0,8.6
			c0.1,2.5,0.7,2.9,3,2c0.4-0.1,0.7-0.3,1-0.5c5.5-3.2,11.2-6,16.9-8.9c16.5-8.5,33-17,49.4-25.7c3.1-1.6,5.9-1.9,9.3-1.1
			c14.6,3.8,29.5,5.8,44.6,6.3c7.4,0.2,14.7-0.2,22.1-0.8c12.4-1,24.5-3.1,36.4-6.3c15-4,29.3-9.7,43-17c15-8,28.9-17.7,41.3-29.3
			c9.5-8.9,18.1-18.6,25.6-29.2c15.6-22.1,25.7-46.4,30.3-73c0.9-5.4,1-10.8,1.7-16.1c0-0.8,0-1.6,0-2.3c-0.4-0.9-0.4-1.9,0-2.8
			c0-0.5,0-0.9,0-1.4c-0.5-1-0.1-2-0.2-3c0-1.7,0-3.4,0-5.1c0.1-1-0.2-2,0.2-3c0-0.5,0-0.9,0-1.4c-0.4-1.1-0.4-2.2,0-3.3
			C452.3,229.9,452.3,229.4,452.3,229z M434.7,252.6c-4,46.7-25.2,84.2-61.2,113.5c-26.2,21.4-56.5,34-89.9,38.7
			c-26.7,3.8-53.1,2.2-79.1-5.2c-3.1-0.9-5.6-0.6-8.5,1c-16.2,8.6-32.6,17.1-48.9,25.5c-0.5,0.2-1,0.4-1.4,0.6
			c-0.5-0.9-0.3-1.8-0.3-2.6c0-16.9,0-33.7,0-50.6c0-1.7-0.5-2.8-1.9-3.8c-31.2-23.9-52.8-54.3-62-92.7c-9.6-40-4.1-78.2,16.2-113.8
			c23.2-40.6,58.2-66.7,102.5-80.6c15.9-5,32.1-7.5,48.8-8.1c32.4-1.1,63.3,5.1,92.3,19.8c37.5,19,65.4,47.4,81.9,86.3
			C433,203.6,436.8,227.7,434.7,252.6z M375.9,192.4c-8.9,9.7-17.9,19.4-26.8,29.1c-23.9,25.9-47.7,51.7-71.5,77.6
			c-1.6,1.8-2.3,1.5-3.8-0.1c-15.4-16.6-30.8-33.1-46.2-49.6c-1-1.1-1.7-0.9-2.8-0.3c-19.8,11.1-39.6,22.3-59.5,33.4
			c-9.1,5.1-18.1,10.2-27.2,15.2c-0.7,0.4-1.3,0.9-2.4,0.6c4.4-4.7,8.8-9.3,13.2-13.9c28.8-30.5,57.6-61,86.3-91.6
			c1.3-1.4,2-1.1,3.2,0.1c15.7,15.7,31.4,31.4,47.1,47.2c1.3,1.3,2.1,1.3,3.7,0.5c28.4-16,56.8-31.9,85.2-47.8
			c0.4-0.2,0.8-0.4,1.2-0.6C375.6,192.2,375.8,192.3,375.9,192.4z"/>
	</g>
</g>
</svg>
