<?xml version="1.0" encoding="utf-8"?>
<!-- Generator: Adobe Illustrator 17.0.0, SVG Export Plug-In . SVG Version: 6.00 Build 0)  -->
<!DOCTYPE svg PUBLIC "-//W3C//DTD SVG 1.1//EN" "http://www.w3.org/Graphics/SVG/1.1/DTD/svg11.dtd">
<svg version="1.1" id="Camada_1" xmlns="http://www.w3.org/2000/svg" xmlns:xlink="http://www.w3.org/1999/xlink" x="0px" y="0px"
	 width="1021px" height="623px" viewBox="0 0 1021 623" enable-background="new 0 0 1021 623" xml:space="preserve">
<g>
	<path fill="none" stroke="#08D9C3" stroke-width="2" stroke-linecap="round" stroke-linejoin="round" d="M501,79l9-7l9,7v11
		c0,0.53-0.211,1.039-0.586,1.414S517.53,92,517,92h-14c-0.53,0-1.039-0.211-1.414-0.586S501,90.53,501,90V79z"/>
	<path fill="none" stroke="#08D9C3" stroke-width="2" stroke-linecap="round" stroke-linejoin="round" d="M507,92V82h6v10"/>
</g>
<g>
	<path fill="none" stroke="#08D9C3" stroke-width="2" stroke-linecap="round" stroke-linejoin="round" d="M21,332h1
		c1.061,0,2.078,0.421,2.828,1.172C25.579,333.922,26,334.939,26,336s-0.421,2.078-1.172,2.828C24.078,339.579,23.061,340,22,340h-1
		"/>
	<path fill="none" stroke="#08D9C3" stroke-width="2" stroke-linecap="round" stroke-linejoin="round" d="M5,332h16v9
		c0,1.061-0.421,2.078-1.172,2.828C19.078,344.579,18.061,345,17,345H9c-1.061,0-2.078-0.421-2.828-1.172
		C5.421,343.078,5,342.061,5,341V332z"/>
	<path fill="none" stroke="#08D9C3" stroke-width="2" stroke-linecap="round" stroke-linejoin="round" d="M9,325v3"/>
	<path fill="none" stroke="#08D9C3" stroke-width="2" stroke-linecap="round" stroke-linejoin="round" d="M13,325v3"/>
	<path fill="none" stroke="#08D9C3" stroke-width="2" stroke-linecap="round" stroke-linejoin="round" d="M17,325v3"/>
</g>
<g>
	<path fill="none" stroke="#08D9C3" stroke-width="2" stroke-linecap="round" stroke-linejoin="round" d="M240,345
		c0.552,0,1-0.448,1-1s-0.448-1-1-1s-1,0.448-1,1S239.448,345,240,345z"/>
	<path fill="none" stroke="#08D9C3" stroke-width="2" stroke-linecap="round" stroke-linejoin="round" d="M251,345
		c0.552,0,1-0.448,1-1s-0.448-1-1-1s-1,0.448-1,1S250.448,345,251,345z"/>
	<path fill="none" stroke="#08D9C3" stroke-width="2" stroke-linecap="round" stroke-linejoin="round" d="M232,324h4l2.68,13.39
		c0.091,0.46,0.342,0.874,0.708,1.168c0.365,0.295,0.823,0.451,1.292,0.442h9.72c0.469,0.009,0.927-0.147,1.292-0.442
		c0.366-0.294,0.617-0.708,0.708-1.168L254,329h-17"/>
</g>
<g>
	<path fill="none" stroke="#08D9C3" stroke-width="2" stroke-linecap="round" stroke-linejoin="round" d="M815,583h-10
		c-1.105,0-2,0.895-2,2v16c0,1.105,0.895,2,2,2h10c1.105,0,2-0.895,2-2v-16C817,583.895,816.105,583,815,583z"/>
	<path fill="none" stroke="#08D9C3" stroke-width="2" stroke-linecap="round" stroke-linejoin="round" d="M810,599h0.01"/>
</g>
<g>
	<path fill="none" stroke="#08D9C3" stroke-width="2" stroke-linecap="round" stroke-linejoin="round" d="M193.006,601v2"/>
	<path fill="none" stroke="#08D9C3" stroke-width="2" stroke-linecap="round" stroke-linejoin="round" d="M193.006,595v2"/>
	<path fill="none" stroke="#08D9C3" stroke-width="2" stroke-linecap="round" stroke-linejoin="round" d="M201.006,601v2"/>
	<path fill="none" stroke="#08D9C3" stroke-width="2" stroke-linecap="round" stroke-linejoin="round" d="M201.006,595v2"/>
	<path fill="none" stroke="#08D9C3" stroke-width="2" stroke-linecap="round" stroke-linejoin="round" d="M197.006,603v2"/>
	<path fill="none" stroke="#08D9C3" stroke-width="2" stroke-linecap="round" stroke-linejoin="round" d="M197.006,597v2"/>
	<path fill="none" stroke="#08D9C3" stroke-width="2" stroke-linecap="round" stroke-linejoin="round" d="M205.006,598.58
		c1.051-0.461,1.912-1.269,2.438-2.289c0.526-1.02,0.685-2.19,0.45-3.313c-0.234-1.124-0.848-2.132-1.738-2.856
		c-0.89-0.725-2.002-1.121-3.15-1.122h-1.26c-0.317-1.228-0.921-2.362-1.763-3.31c-0.841-0.949-1.896-1.683-3.077-2.144
		c-1.182-0.46-2.455-0.633-3.716-0.505c-1.262,0.129-2.474,0.555-3.538,1.244c-1.065,0.689-1.95,1.621-2.583,2.72
		c-0.633,1.098-0.996,2.331-1.059,3.597c-0.063,1.266,0.176,2.529,0.696,3.685c0.521,1.156,1.31,2.171,2.3,2.963"/>
</g>
<g>
	<path fill="none" stroke="#08D9C3" stroke-width="2" stroke-linecap="round" stroke-linejoin="round" d="M197,50v22"/>
	<path fill="none" stroke="#08D9C3" stroke-width="2" stroke-linecap="round" stroke-linejoin="round" d="M202,54h-7.5
		c-0.928,0-1.818,0.369-2.475,1.025C191.369,55.681,191,56.572,191,57.5s0.369,1.819,1.025,2.475
		C192.682,60.631,193.572,61,194.5,61h5c0.928,0,1.818,0.369,2.475,1.025C202.631,62.681,203,63.572,203,64.5
		s-0.369,1.818-1.025,2.475C201.318,67.631,200.428,68,199.5,68H191"/>
</g>
<g>
	<path fill="none" stroke="#08D9C3" stroke-width="2" stroke-linecap="round" stroke-linejoin="round" d="M514,596h-15v13h15V596z"
		/>
	<path fill="none" stroke="#08D9C3" stroke-width="2" stroke-linecap="round" stroke-linejoin="round" d="M514,601h4l3,3v5h-7V601z"
		/>
	<path fill="none" stroke="#08D9C3" stroke-width="2" stroke-linecap="round" stroke-linejoin="round" d="M503.5,614
		c1.381,0,2.5-1.119,2.5-2.5s-1.119-2.5-2.5-2.5s-2.5,1.119-2.5,2.5S502.119,614,503.5,614z"/>
	<path fill="none" stroke="#08D9C3" stroke-width="2" stroke-linecap="round" stroke-linejoin="round" d="M516.5,614
		c1.381,0,2.5-1.119,2.5-2.5s-1.119-2.5-2.5-2.5s-2.5,1.119-2.5,2.5S515.119,614,516.5,614z"/>
</g>
<g>
	<path fill="none" stroke="#08D9C3" stroke-width="2" stroke-linecap="round" stroke-linejoin="round" d="M1016,342
		c0,0.53-0.21,1.039-0.59,1.414c-0.37,0.375-0.88,0.586-1.41,0.586h-18c-0.53,0-1.039-0.211-1.414-0.586S994,342.53,994,342v-11
		c0-0.53,0.211-1.039,0.586-1.414S995.47,329,996,329h4l2-3h6l2,3h4c0.53,0,1.04,0.211,1.41,0.586c0.38,0.375,0.59,0.884,0.59,1.414
		V342z"/>
	<path fill="none" stroke="#08D9C3" stroke-width="2" stroke-linecap="round" stroke-linejoin="round" d="M1005,340
		c2.21,0,4-1.791,4-4s-1.79-4-4-4s-4,1.791-4,4S1002.79,340,1005,340z"/>
</g>
<g>
	<path fill="none" stroke="#08D9C3" stroke-width="2" stroke-linecap="round" stroke-linejoin="round" d="M819.291,51.612
		c-0.51-0.511-1.117-0.916-1.784-1.193c-0.668-0.277-1.383-0.419-2.106-0.419c-0.722,0-1.438,0.142-2.105,0.419
		c-0.668,0.277-1.274,0.682-1.785,1.193l-1.06,1.06l-1.06-1.06C808.36,50.58,806.96,50,805.501,50c-1.459,0-2.858,0.58-3.89,1.611
		c-1.031,1.032-1.611,2.431-1.611,3.89c0,1.459,0.58,2.858,1.611,3.89l1.06,1.06l7.78,7.78l7.78-7.78l1.06-1.06
		c0.511-0.511,0.917-1.117,1.193-1.785c0.277-0.667,0.419-1.383,0.419-2.105s-0.142-1.438-0.419-2.105
		C820.208,52.729,819.802,52.123,819.291,51.612L819.291,51.612z"/>
</g>
<g>
	<path fill="none" stroke="#08D9C3" stroke-width="2" stroke-linecap="round" stroke-linejoin="round" d="M781,344v-2
		c0-1.061-0.421-2.078-1.172-2.828c-0.75-0.751-1.767-1.172-2.828-1.172h-7c-1.061,0-2.078,0.421-2.828,1.172
		c-0.751,0.75-1.172,1.767-1.172,2.828v2"/>
	<path fill="none" stroke="#08D9C3" stroke-width="2" stroke-linecap="round" stroke-linejoin="round" d="M773.5,334
		c2.209,0,4-1.791,4-4s-1.791-4-4-4s-4,1.791-4,4S771.291,334,773.5,334z"/>
	<path fill="none" stroke="#08D9C3" stroke-width="2" stroke-linecap="round" stroke-linejoin="round" d="M785,331v6"/>
	<path fill="none" stroke="#08D9C3" stroke-width="2" stroke-linecap="round" stroke-linejoin="round" d="M788,334h-6"/>
</g>
<g>
	<path fill="none" stroke="#08D9C3" stroke-width="2" stroke-linecap="round" stroke-linejoin="round" d="M520.642,13.502
		l-10.65,7.74l-10.65-7.74c-0.142-0.105-0.248-0.252-0.302-0.421c-0.054-0.169-0.053-0.35,0.002-0.519l1.22-3.78l2.44-7.51
		c0.024-0.061,0.062-0.116,0.11-0.16C502.892,1.04,502.995,1,503.102,1c0.108,0,0.211,0.04,0.29,0.113
		c0.052,0.05,0.09,0.112,0.11,0.18l2.44,7.49h8.1l2.44-7.51c0.024-0.061,0.062-0.116,0.11-0.16C516.672,1.04,516.775,1,516.882,1
		c0.108,0,0.211,0.04,0.29,0.113c0.052,0.05,0.09,0.112,0.11,0.18l2.44,7.51l1.27,3.76c0.051,0.174,0.044,0.359-0.019,0.528
		C520.91,13.26,520.794,13.404,520.642,13.502L520.642,13.502z"/>
</g>
<g>
	<path fill="none" stroke="#585858" stroke-width="5" d="M247.5,308c0-75.5,91-222.5,239-222.5"/>
</g>
<g>
	<path fill="none" stroke="#585858" stroke-width="5" d="M775,308c0-75.33-91-222-239-222"/>
</g>
<g>
	<path fill="none" stroke="#585858" stroke-width="5" d="M247,358c0,136.5,147.5,243,239,243"/>
</g>
<g>
	<path fill="none" stroke="#585858" stroke-width="5" d="M775,358c0,136.5-147.5,243-239,243"/>
</g>
</svg>
