<?xml version="1.0" encoding="utf-8"?>
<!-- Generator: Adobe Illustrator 24.1.3, SVG Export Plug-In . SVG Version: 6.00 Build 0)  -->
<svg version="1.1" id="Layer_1" xmlns="http://www.w3.org/2000/svg" xmlns:xlink="http://www.w3.org/1999/xlink" x="0px" y="0px"
	 viewBox="0 0 512 512" style="enable-background:new 0 0 512 512;" xml:space="preserve">
<style type="text/css">
	.st0{fill:#3779ED;}
	.st1{fill:#189C0E;}
	.st2{fill:#E0201B;}
	.st3{fill:#2F2FCC;}
</style>
<g>
	
		<image style="overflow:visible;opacity:0.75;" width="424" height="428" xlink:href="F5D90276.png"  transform="matrix(1 0 0 1 51 49)">
	</image>
	<g>
		<path class="st1" d="M450.4,221.7c-6.3-44-26.2-81.5-58.8-111.7C347,68.7,294,52,233.9,59.4c-40.8,5-76.5,22.1-106.2,50.5
			c-44.6,42.7-64.8,95.3-60.5,157c2,29.3,11,56.6,25.9,81.8c0.7,1.3,1,2.3,0.5,3.7c-8.9,26.4-17.8,52.7-26.6,79.1
			c-2.5,7.4-5,14.7-7.6,22.7c1.8-0.5,2.9-0.8,4-1.1c33.4-10.7,66.8-21.4,100.2-32.2c2-0.6,3.4-0.4,5.2,0.5
			c40.8,21.4,83.8,27.9,129,18.9c40.5-8,75.1-27.2,103-57.6C442.6,337.1,459.2,283,450.4,221.7z M418.8,272.6
			c-6.7,47.9-30.2,86.4-70.9,112.3c-57.4,36.5-116.2,36.1-174.8,1.5c-1.7-1-2.9-1-4.6-0.4c-19,6.1-38,12.2-57,18.2
			c-0.5,0.2-1,0.3-2.1,0.7c2.2-6.6,4.2-12.6,6.2-18.5c4.3-12.7,8.4-25.4,12.8-38.1c0.8-2.2,0.5-3.8-0.9-5.7
			c-15.2-21.6-24.6-45.5-27.5-71.7c-5.9-54.8,11.4-101.4,51.7-139c22.4-20.9,49.2-33.6,79.3-39.3C292.8,81,358.3,108.8,392.8,161
			C415.3,195,424.4,232.3,418.8,272.6z M163.1,204.3c0-17.5,6.9-31.8,20-43.3c3.8-3.4,8.3-5,13.5-4.6c3.4,0.3,6.8,0.5,10.3,0.7
			c4.8,0.3,6.7,3.8,8.2,7.5c2.5,6.4,4.8,12.8,7.2,19.3c2.5,6.6,4.8,13.3,7.4,19.8c1.2,3.1,0.9,5.7-0.5,8.6
			c-3.1,6.2-7.9,10.9-12.6,15.7c-4.4,4.5-4.7,6-1.7,11.5c14.2,26,34.3,45.7,61.3,58.2c9.9,4.6,9.8,4.7,17.1-3.3
			c4.3-4.7,8.5-9.4,12.4-14.4c3.3-4.3,5.6-5,10.5-2.9c7.5,3.1,14.5,7.2,21.7,11c6,3.1,11.9,6.5,17.8,9.6c3.2,1.7,4.5,4,4.4,7.8
			c-0.5,18.4-9.7,30.6-26.4,37.4c-12.3,5.1-24.8,6.4-37.7,1.9c-17.2-6.1-34.4-12-49.9-21.7c-20-12.5-36.3-29.1-50.4-47.8
			c-9.8-13-19.1-26.5-25.7-41.5C165.7,224.4,163.1,214.7,163.1,204.3z"/>
	</g>
</g>
</svg>
